<svg width="151" height="45" viewBox="0 0 151 45" fill="none" xmlns="http://www.w3.org/2000/svg">
<path d="M2.58239 35V8.81818H7.32528V19.902H19.4574V8.81818H24.2131V35H19.4574V23.8778H7.32528V35H2.58239ZM29.1669 35V15.3636H33.7947V35H29.1669ZM31.4936 12.5767C30.7607 12.5767 30.13 12.3338 29.6016 11.848C29.0732 11.3537 28.8089 10.7614 28.8089 10.071C28.8089 9.37216 29.0732 8.77983 29.6016 8.29403C30.13 7.79971 30.7607 7.55256 31.4936 7.55256C32.2351 7.55256 32.8658 7.79971 33.3857 8.29403C33.9141 8.77983 34.1783 9.37216 34.1783 10.071C34.1783 10.7614 33.9141 11.3537 33.3857 11.848C32.8658 12.3338 32.2351 12.5767 31.4936 12.5767ZM38.5536 35V15.3636H43.0408V18.6364H43.2454C43.6033 17.5028 44.217 16.6293 45.0863 16.0156C45.9641 15.3935 46.9656 15.0824 48.0906 15.0824C48.3462 15.0824 48.6317 15.0952 48.9471 15.1207C49.271 15.1378 49.5394 15.1676 49.7525 15.2102V19.4673C49.5565 19.3991 49.2454 19.3395 48.8192 19.2884C48.4016 19.2287 47.9968 19.1989 47.6048 19.1989C46.761 19.1989 46.0025 19.3821 45.3292 19.7486C44.6644 20.1065 44.1403 20.6051 43.7567 21.2443C43.3732 21.8835 43.1815 22.6207 43.1815 23.456V35H38.5536ZM60.7116 35.3835C58.7429 35.3835 57.0426 34.9744 55.6108 34.1562C54.1875 33.3295 53.0923 32.1619 52.3253 30.6534C51.5582 29.1364 51.1747 27.3509 51.1747 25.2969C51.1747 23.277 51.5582 21.5043 52.3253 19.9787C53.1009 18.4446 54.1832 17.2514 55.5724 16.3991C56.9616 15.5384 58.5938 15.108 60.4688 15.108C61.679 15.108 62.821 15.304 63.8949 15.696C64.9773 16.0795 65.9318 16.6761 66.7585 17.4858C67.5938 18.2955 68.25 19.3267 68.7273 20.5795C69.2045 21.8239 69.4432 23.3068 69.4432 25.0284V26.4474H53.348V23.3281H65.0071C64.9986 22.4418 64.8068 21.6534 64.4318 20.9631C64.0568 20.2642 63.5327 19.7145 62.8594 19.3139C62.1946 18.9134 61.419 18.7131 60.5327 18.7131C59.5866 18.7131 58.7557 18.9432 58.0398 19.4034C57.3239 19.8551 56.7656 20.4517 56.3651 21.1932C55.973 21.9261 55.7727 22.7315 55.7642 23.6094V26.3324C55.7642 27.4744 55.973 28.4545 56.3906 29.2727C56.8082 30.0824 57.392 30.7045 58.142 31.1392C58.892 31.5653 59.7699 31.7784 60.7756 31.7784C61.4489 31.7784 62.0582 31.6847 62.6037 31.4972C63.1491 31.3011 63.6222 31.0156 64.0227 30.6406C64.4233 30.2656 64.7259 29.8011 64.9304 29.2472L69.2514 29.733C68.9787 30.875 68.4588 31.8722 67.6918 32.7244C66.9332 33.5682 65.9616 34.2244 64.777 34.6932C63.5923 35.1534 62.2372 35.3835 60.7116 35.3835ZM73.5629 8.81818H79.3668L87.1396 27.7898H87.4464L95.2191 8.81818H101.023V35H96.4719V17.0128H96.229L88.9933 34.9233H85.5927L78.3569 16.9744H78.114V35H73.5629V8.81818ZM114.676 35.3835C112.708 35.3835 111.007 34.9744 109.576 34.1562C108.152 33.3295 107.057 32.1619 106.29 30.6534C105.523 29.1364 105.14 27.3509 105.14 25.2969C105.14 23.277 105.523 21.5043 106.29 19.9787C107.066 18.4446 108.148 17.2514 109.537 16.3991C110.926 15.5384 112.559 15.108 114.434 15.108C115.644 15.108 116.786 15.304 117.86 15.696C118.942 16.0795 119.897 16.6761 120.723 17.4858C121.559 18.2955 122.215 19.3267 122.692 20.5795C123.169 21.8239 123.408 23.3068 123.408 25.0284V26.4474H107.313V23.3281H118.972C118.963 22.4418 118.772 21.6534 118.397 20.9631C118.022 20.2642 117.498 19.7145 116.824 19.3139C116.159 18.9134 115.384 18.7131 114.498 18.7131C113.551 18.7131 112.721 18.9432 112.005 19.4034C111.289 19.8551 110.73 20.4517 110.33 21.1932C109.938 21.9261 109.738 22.7315 109.729 23.6094V26.3324C109.729 27.4744 109.938 28.4545 110.355 29.2727C110.773 30.0824 111.357 30.7045 112.107 31.1392C112.857 31.5653 113.735 31.7784 114.74 31.7784C115.414 31.7784 116.023 31.6847 116.569 31.4972C117.114 31.3011 117.587 31.0156 117.988 30.6406C118.388 30.2656 118.691 29.8011 118.895 29.2472L123.216 29.733C122.944 30.875 122.424 31.8722 121.657 32.7244C120.898 33.5682 119.926 34.2244 118.742 34.6932C117.557 35.1534 116.202 35.3835 114.676 35.3835Z" fill="white"/>
<path d="M138.263 40L147.421 32.0499L141.474 13.338L151 5H138.263V40Z" fill="#FF3366"/>
<path d="M138.263 40L128.727 32.0499L134.92 13.338L125 5H138.263V40Z" fill="#FF3366"/>
</svg>
